<?xml version="1.0" encoding="UTF-8"?>
<svg id="Layer_1" data-name="Layer 1" xmlns="http://www.w3.org/2000/svg" version="1.1" xmlns:xlink="http://www.w3.org/1999/xlink" viewBox="0 0 564.5 293.6">
  <defs>
    <style>
      .cls-1 {
        fill: url(#linear-gradient);
      }

      .cls-1, .cls-2, .cls-3, .cls-4, .cls-5, .cls-6 {
        stroke-width: 0px;
      }

      .cls-2 {
        fill: url(#linear-gradient-5);
      }

      .cls-3 {
        fill: url(#linear-gradient-2);
      }

      .cls-4 {
        fill: url(#linear-gradient-3);
      }

      .cls-5 {
        fill: #fff;
      }

      .cls-6 {
        fill: url(#linear-gradient-4);
      }
    </style>
    <linearGradient id="linear-gradient" x1="88.8" y1="113.3" x2="88.8" y2="272.2" gradientTransform="translate(0 382) scale(1 -1)" gradientUnits="userSpaceOnUse">
      <stop offset="0" stop-color="#ff5923"/>
      <stop offset="1" stop-color="#f69000"/>
    </linearGradient>
    <linearGradient id="linear-gradient-2" x1="382.9" y1="113.4" x2="382.9" y2="272.3" gradientTransform="translate(0 382) scale(1 -1)" gradientUnits="userSpaceOnUse">
      <stop offset="0" stop-color="#ff5923"/>
      <stop offset="1" stop-color="#f69000"/>
    </linearGradient>
    <linearGradient id="linear-gradient-3" x1="477.1" y1="113.4" x2="477.1" y2="272.3" gradientTransform="translate(0 382) scale(1 -1)" gradientUnits="userSpaceOnUse">
      <stop offset="0" stop-color="#ff5923"/>
      <stop offset="1" stop-color="#f69000"/>
    </linearGradient>
    <linearGradient id="linear-gradient-4" x1="211.6" y1="83.3" x2="211.6" y2="302.4" gradientTransform="translate(0 382) scale(1 -1)" gradientUnits="userSpaceOnUse">
      <stop offset="0" stop-color="#ff5923"/>
      <stop offset="1" stop-color="#f69000"/>
    </linearGradient>
    <linearGradient id="linear-gradient-5" x1="276.2" y1="83.3" x2="276.2" y2="302.4" gradientTransform="translate(0 382) scale(1 -1)" gradientUnits="userSpaceOnUse">
      <stop offset="0" stop-color="#ff5923"/>
      <stop offset="1" stop-color="#f69000"/>
    </linearGradient>
  </defs>
  <g id="_Layer_" data-name="&amp;lt;Layer&amp;gt;">
    <path class="cls-1" d="M20.6,268.7h136.3v-66.1l-13.7-11.7,13.7-11.4v-69.9H20.6v159ZM66.1,150.9h45.4v20h-45.4v-20ZM66.1,210.4h45.4v20h-45.4v-20Z"/>
    <polygon class="cls-3" points="376.1 109.7 330.7 109.7 330.7 268.6 435 268.6 435 223.2 376.1 223.2 376.1 109.7"/>
    <polygon class="cls-4" points="409 109.7 409 155.1 454.4 155.1 454.4 268.6 499.8 268.6 499.8 155.1 545.2 155.1 545.2 109.7 409 109.7"/>
    <g>
      <polygon class="cls-6" points="208.2 208.1 247.8 109.7 175.4 109.7 175.4 268.6 231.8 268.6 238.3 208.1 208.2 208.1"/>
      <polygon class="cls-2" points="311.7 109.7 256.7 109.7 250.1 170.2 280.3 170.2 240.6 268.6 311.7 268.6 311.7 109.7"/>
    </g>
  </g>
  <g>
    <path class="cls-5" d="M49.8,96.6v-17.1c0,0-8.4,13.9-8.4,13.9h-4.1l-8.3-13.5v16.6h-8.4v-32.3h7.5l11.3,18.6,11.1-18.6h7.5v32.3c0,0-8.3,0-8.3,0Z"/>
    <path class="cls-5" d="M90.5,89.6v7.1h-25.9v-32.3h25.3v7.1h-16.3v5.4h14.3v6.8h-14.3v5.9h16.9Z"/>
    <path class="cls-5" d="M102.5,71.6h-9.9v-7.2h28.9v7.2h-9.9v25h-9.1v-25Z"/>
    <path class="cls-5" d="M144.9,90.4h-13.6l-2.5,6.3h-9.3l14.2-32.3h9l14.3,32.3h-9.5l-2.5-6.3ZM142.2,83.6l-4.1-10.3-4.1,10.3h8.3Z"/>
  </g>
</svg>